<svg xmlns="http://www.w3.org/2000/svg" version="1.1" xmlns:xlink="http://www.w3.org/1999/xlink" xmlns:svgjs="http://svgjs.com/svgjs" width="1440" height="560" preserveAspectRatio="none" viewBox="0 0 1440 560">
    <g mask="url(&quot;#SvgjsMask1390&quot;)" fill="none">
        <path d="M 0,171 C 57.6,242.2 172.8,542.6 288,527 C 403.2,511.4 460.8,135 576,93 C 691.2,51 748.8,329 864,317 C 979.2,305 1036.8,38.6 1152,33 C 1267.2,27.4 1382.4,237.8 1440,289L1440 560L0 560z" fill="rgba(27, 153, 139, 1)"></path>
        <path d="M 0,400 C 96,353.2 288,159.4 480,166 C 672,172.6 768,418.8 960,433 C 1152,447.2 1344,276.2 1440,237L1440 560L0 560z" fill="rgba(230, 240, 240, 1)"></path>
    </g>
    <defs>
        <mask id="SvgjsMask1390">
            <rect width="1440" height="560" fill="#ffffff"></rect>
        </mask>
    </defs>
</svg>